<svg width="18" height="18" viewBox="0 0 18 18" fill="none" xmlns="http://www.w3.org/2000/svg">
<path d="M14.7585 7.6254L13.166 2.64551C13.1556 2.61219 13.1348 2.58309 13.1066 2.56251C13.0785 2.54193 13.0444 2.53097 13.0095 2.53126H11.649C11.5769 2.53126 11.5154 2.57696 11.4925 2.64551L9.88765 7.6254C9.88238 7.64122 9.87886 7.65879 9.87886 7.67637C9.87886 7.76602 9.95269 7.83985 10.0423 7.83985H11.0337C11.1076 7.83985 11.1709 7.79063 11.1919 7.72032L11.4996 6.63751H13.064L13.3681 7.71856C13.3875 7.78887 13.4525 7.83809 13.5263 7.83809H14.6021C14.6197 7.83809 14.6355 7.83633 14.6513 7.83106C14.6935 7.817 14.7269 7.78887 14.748 7.7502C14.7673 7.71153 14.7709 7.66758 14.7585 7.6254V7.6254ZM11.6595 5.72169L12.2361 3.6668H12.3468L12.9111 5.72169H11.6595V5.72169ZM14.182 14.3859H11.9039V14.3789L14.2347 11.0584C14.2541 11.0303 14.2646 10.9986 14.2646 10.9635V10.3236C14.2646 10.234 14.1908 10.1602 14.1011 10.1602H10.5152C10.4255 10.1602 10.3517 10.234 10.3517 10.3236V11.0795C10.3517 11.1691 10.4255 11.243 10.5152 11.243H12.6703V11.25L10.3306 14.5705C10.3111 14.5983 10.3006 14.6315 10.3007 14.6654V15.3053C10.3007 15.3949 10.3746 15.4688 10.4642 15.4688H14.1802C14.2699 15.4688 14.3437 15.3949 14.3437 15.3053V14.5494C14.3439 14.528 14.3399 14.5068 14.3319 14.487C14.3239 14.4672 14.312 14.4491 14.297 14.4339C14.2819 14.4187 14.264 14.4067 14.2443 14.3984C14.2245 14.3902 14.2034 14.3859 14.182 14.3859V14.3859ZM7.31246 12.3398H5.97652V3.02344C5.97652 2.9461 5.91324 2.88282 5.83589 2.88282H4.85152C4.77417 2.88282 4.71089 2.9461 4.71089 3.02344V12.3398H3.37496C3.25718 12.3398 3.19039 12.477 3.26421 12.5684L5.23296 15.0627C5.24612 15.0795 5.26293 15.0931 5.28211 15.1025C5.3013 15.1118 5.32236 15.1167 5.34371 15.1167C5.36505 15.1167 5.38611 15.1118 5.4053 15.1025C5.42449 15.0931 5.44129 15.0795 5.45445 15.0627L7.4232 12.5684C7.49527 12.477 7.43023 12.3398 7.31246 12.3398Z" fill="#2F2C2C"/>
</svg>
